<svg id="visual" viewBox="0 0 1500 300" width="1500" height="300" xmlns="http://www.w3.org/2000/svg" xmlns:xlink="http://www.w3.org/1999/xlink" version="1.1"><rect x="0" y="0" width="1500" height="300" fill="#001122"></rect><defs><linearGradient id="grad1_0" x1="80%" y1="0%" x2="100%" y2="100%"><stop offset="-50%" stop-color="#001122" stop-opacity="1"></stop><stop offset="150%" stop-color="#001122" stop-opacity="1"></stop></linearGradient></defs><defs><linearGradient id="grad2_0" x1="0%" y1="0%" x2="20%" y2="100%"><stop offset="-50%" stop-color="#001122" stop-opacity="1"></stop><stop offset="150%" stop-color="#001122" stop-opacity="1"></stop></linearGradient></defs><g transform="translate(1500, 0)"><path d="M0 255C-13.4 256.8 -26.8 258.7 -35.9 249.4C-45 240.2 -49.8 219.8 -65.1 221.6C-80.4 223.5 -106.1 247.6 -101.8 222.9C-97.5 198.1 -63.2 124.6 -79.5 123.7C-95.8 122.7 -162.7 194.2 -167 192.7C-171.3 191.2 -113 116.6 -111.1 96.3C-109.2 75.9 -163.7 109.8 -171.6 110.3C-179.5 110.8 -140.9 77.8 -142.8 65.2C-144.8 52.7 -187.3 60.5 -190.9 56.1C-194.5 51.6 -159.1 34.9 -163.3 23.5C-167.5 12.1 -211.2 6 -255 0L0 0Z" fill="#FBAE3C"></path></g><g transform="translate(0, 300)"><path d="M0 -255C5.2 -197.3 10.4 -139.6 18.2 -126.7C26 -113.8 36.3 -145.8 46.8 -159.3C57.2 -172.7 67.7 -167.7 72.3 -158.3C76.9 -148.9 75.5 -135.2 90.8 -141.3C106.1 -147.5 138 -173.6 154.5 -178.4C171.1 -183.1 172.3 -166.6 182.1 -157.8C192 -149.1 210.4 -148.2 214.5 -137.9C218.7 -127.5 208.5 -107.8 202.8 -92.6C197.2 -77.5 196.1 -67 194.8 -57.2C193.5 -47.4 191.9 -38.4 201.9 -29C211.9 -19.6 233.5 -9.8 255 0L0 0Z" fill="#FBAE3C"></path></g></svg>